<?xml version="1.0" encoding="UTF-8" standalone="no"?>
<!DOCTYPE svg PUBLIC "-//W3C//DTD SVG 1.1//EN" "http://www.w3.org/Graphics/SVG/1.1/DTD/svg11.dtd">
<svg width="100%" height="100%" viewBox="0 0 30 30" version="1.1" xmlns="http://www.w3.org/2000/svg" xmlns:xlink="http://www.w3.org/1999/xlink" xml:space="preserve" xmlns:serif="http://www.serif.com/" style="fill-rule:evenodd;clip-rule:evenodd;stroke-linecap:round;stroke-linejoin:round;stroke-miterlimit:1.5;">
    <g transform="matrix(0.0295911,0,0,0.0295911,-1.77015,-1.37721)">
        <g transform="matrix(1.01649,0,0,1.01649,-32.1403,-42.5237)">
            <path d="M583.754,137.929C834.352,137.929 1037.81,341.383 1037.81,591.981C1037.81,842.579 834.352,1046.03 583.754,1046.03C333.156,1046.03 129.702,842.579 129.702,591.981C129.702,341.383 333.156,137.929 583.754,137.929ZM583.754,314.331C736.993,314.331 861.404,438.742 861.404,591.981C861.404,745.221 736.993,869.632 583.754,869.632C430.514,869.632 306.103,745.221 306.103,591.981C306.103,438.742 430.514,314.331 583.754,314.331Z" style="fill:rgb(44,44,44);fill-opacity:0.59;stroke:white;stroke-opacity:0.99;stroke-width:26.6px;"/>
        </g>
        <path d="M560.593,842.322C561.728,851.282 560.651,1009.32 560.651,1018.94" style="fill:rgb(201,215,126);stroke:white;stroke-opacity:0.99;stroke-width:27.04px;"/>
        <path d="M575.502,168.494L580.679,168.581L585.83,168.738L590.954,168.964L596.052,169.26L601.123,169.625L606.167,170.059L611.183,170.56L616.172,171.128L621.132,171.762L626.064,172.463L630.967,173.229L635.842,174.061L640.686,174.956L645.502,175.915L650.287,176.938L655.042,178.023L659.766,179.17L664.46,180.379L669.122,181.649L673.753,182.978L678.352,184.368L682.919,185.817L687.454,187.324L691.957,188.89L696.426,190.513L700.862,192.192L705.265,193.928L709.634,195.719L713.969,197.566L718.27,199.467L722.536,201.422L726.768,203.43L730.964,205.491L735.125,207.603L739.25,209.768L743.34,211.983L747.393,214.248L751.41,216.564L755.39,218.928L759.334,221.341L763.24,223.801L767.109,226.309L770.94,228.864L774.734,231.465L778.489,234.112L782.206,236.803L785.884,239.539L789.523,242.319L793.123,245.142L796.684,248.007L800.206,250.915L803.687,253.864L807.128,256.854L810.529,259.884L813.89,262.954L817.21,266.063L820.488,269.21L823.726,272.396L826.922,275.619L830.077,278.879L833.189,282.175L836.26,285.506L839.287,288.873L842.273,292.274L845.215,295.71L848.115,299.178L850.971,302.68L853.784,306.214L856.553,309.779L859.278,313.376L861.959,317.003L864.595,320.66L867.187,324.346L869.734,328.062L872.236,331.805L874.692,335.577L877.103,339.375L879.468,343.201L881.787,347.052L884.06,350.929L886.286,354.831L888.465,358.757L890.598,362.707L892.683,366.681L894.721,370.677L896.712,374.695L898.654,378.735L900.549,382.796L902.395,386.878L904.192,390.979L905.941,395.1L907.64,399.24L909.29,403.398L910.891,407.574L912.442,411.767L913.943,415.977L915.393,420.203L916.793,424.444L918.142,428.701L919.44,432.972L920.687,437.256L921.883,441.555L923.027,445.866L924.118,450.189L925.158,454.524L926.145,458.87L927.079,463.227L927.96,467.594L928.788,471.97L929.563,476.355L930.284,480.749L930.95,485.15L931.563,489.559L932.121,493.974L932.624,498.396L933.072,502.823L933.465,507.255L933.802,511.692L934.083,516.133L934.308,520.576L934.477,525.023L934.59,529.472L934.645,533.922L934.643,538.374L934.584,542.826L934.467,547.281L934.286,551.844L934.041,556.381L933.733,560.89L933.363,565.37L932.931,569.82L932.437,574.241L931.882,578.633L931.267,582.995L930.591,587.327L929.856,591.629L929.061,595.9L928.207,600.142L927.295,604.353L926.325,608.533L925.297,612.682L924.213,616.8L923.072,620.886L921.874,624.941L920.622,628.965L919.314,632.957L917.951,636.917L916.535,640.844L915.064,644.74L913.541,648.603L911.965,652.433L910.337,656.231L908.657,659.995L906.926,663.727L905.145,667.425L903.313,671.09L901.432,674.722L899.502,678.319L897.524,681.883L895.497,685.413L893.423,688.909L891.302,692.371L889.134,695.799L886.921,699.192L884.662,702.551L882.358,705.875L880.011,709.164L877.619,712.418L875.184,715.638L872.706,718.822L870.186,721.972L867.624,725.086L865.021,728.165L862.377,731.208L859.694,734.216L856.97,737.189L854.208,740.125L851.407,743.027L848.567,745.892L845.69,748.722L842.777,751.515L839.826,754.273L836.84,756.995L833.817,759.68L830.76,762.33L827.669,764.943L824.543,767.52L821.383,770.061L818.191,772.565L814.966,775.033L811.709,777.465L808.421,779.86L805.101,782.218L801.751,784.54L798.37,786.825L794.96,789.073L791.521,791.285L788.053,793.46L784.557,795.598L781.033,797.699L777.482,799.763L773.904,801.79L770.3,803.78L766.67,805.733L763.014,807.649L759.334,809.527L755.629,811.369L751.901,813.173L748.148,814.94L744.373,816.669L740.575,818.361L736.755,820.015L732.914,821.632L729.051,823.211L725.167,824.753L721.264,826.257L717.34,827.723L713.397,829.152L709.435,830.542L705.455,831.895L701.456,833.209L697.441,834.486L693.407,835.725L689.358,836.925L685.292,838.087L681.21,839.211L677.113,840.297L673.002,841.344L668.875,842.353L664.735,843.324L660.582,844.255L656.415,845.149L652.236,846.003L648.044,846.819L643.841,847.596L639.627,848.334L635.402,849.033L631.166,849.693L626.921,850.314L622.666,850.896L618.402,851.439L614.129,851.943L609.849,852.407L605.56,852.831L601.265,853.217L596.962,853.562L592.654,853.868L588.339,854.135L584.019,854.361L579.694,854.548L575.364,854.695L571.03,854.801L566.693,854.868L562.415,854.894L560.299,854.741L558.234,854.258L556.269,853.458L554.454,852.361L552.832,850.994L551.445,849.389L550.326,847.587L549.502,845.633L548.994,843.573L548.815,841.459L548.969,839.344L549.451,837.278L550.251,835.314L551.348,833.498L552.716,831.877L554.32,830.49L556.122,829.37L558.077,828.547L560.136,828.039L562.25,827.86L566.403,827.834L570.49,827.771L574.573,827.671L578.653,827.533L582.728,827.357L586.798,827.143L590.863,826.892L594.922,826.604L598.975,826.278L603.021,825.916L607.059,825.516L611.09,825.079L615.113,824.604L619.127,824.094L623.132,823.546L627.127,822.961L631.113,822.34L635.088,821.682L639.052,820.988L643.005,820.257L646.945,819.49L650.874,818.687L654.789,817.848L658.691,816.972L662.58,816.061L666.454,815.114L670.314,814.13L674.159,813.112L677.988,812.057L681.801,810.967L685.597,809.842L689.377,808.681L693.139,807.485L696.883,806.254L700.609,804.988L704.316,803.687L708.004,802.351L711.672,800.98L715.32,799.575L718.948,798.135L722.554,796.66L726.139,795.151L729.702,793.608L733.242,792.031L736.76,790.42L740.254,788.774L743.725,787.095L747.171,785.382L750.593,783.635L753.99,781.855L757.361,780.042L760.706,778.195L764.025,776.314L767.317,774.401L770.582,772.454L773.819,770.475L777.027,768.463L780.207,766.418L783.358,764.34L786.48,762.23L789.572,760.087L792.634,757.912L795.664,755.705L798.664,753.465L801.632,751.194L804.568,748.891L807.472,746.556L810.343,744.189L813.18,741.79L815.984,739.36L818.754,736.899L821.49,734.406L824.191,731.881L826.856,729.326L829.486,726.74L832.079,724.122L834.636,721.474L837.157,718.794L839.64,716.084L842.085,713.344L844.492,710.572L846.861,707.77L849.191,704.938L851.482,702.075L853.733,699.182L855.944,696.258L858.115,693.305L860.245,690.321L862.334,687.307L864.381,684.262L866.387,681.188L868.35,678.084L870.27,674.95L872.147,671.785L873.981,668.591L875.771,665.367L877.516,662.113L879.217,658.829L880.873,655.516L882.484,652.172L884.049,648.799L885.567,645.396L887.039,641.963L888.464,638.5L889.841,635.007L891.171,631.484L892.452,627.932L893.685,624.35L894.868,620.737L896.002,617.095L897.086,613.423L898.12,609.721L899.103,605.989L900.035,602.227L900.915,598.435L901.743,594.612L902.518,590.76L903.241,586.878L903.909,582.965L904.524,579.023L905.085,575.05L905.591,571.047L906.041,567.013L906.436,562.95L906.774,558.856L907.055,554.732L907.28,550.578L907.446,546.389L907.554,542.292L907.608,538.189L907.61,534.085L907.559,529.981L907.455,525.877L907.299,521.774L907.091,517.672L906.831,513.571L906.52,509.473L906.157,505.378L905.743,501.286L905.278,497.197L904.762,493.114L904.195,489.035L903.578,484.962L902.911,480.895L902.194,476.834L901.427,472.781L900.611,468.735L899.745,464.698L898.83,460.67L897.866,456.651L896.854,452.642L895.793,448.643L894.684,444.656L893.527,440.68L892.322,436.717L891.07,432.766L889.77,428.828L888.424,424.905L887.03,420.996L885.59,417.101L884.103,413.222L882.57,409.36L880.991,405.514L879.366,401.685L877.696,397.874L875.981,394.081L874.221,390.307L872.415,386.553L870.566,382.818L868.672,379.104L866.733,375.411L864.751,371.74L862.726,368.091L860.657,364.465L858.544,360.862L856.389,357.283L854.191,353.728L851.951,350.198L849.669,346.694L847.344,343.216L844.978,339.764L842.571,336.339L840.122,332.943L837.632,329.574L835.102,326.234L832.531,322.924L829.92,319.643L827.268,316.393L824.577,313.174L821.847,309.986L819.077,306.83L816.268,303.707L813.42,300.617L810.534,297.56L807.609,294.538L804.646,291.55L801.646,288.598L798.608,285.681L795.532,282.801L792.419,279.958L789.27,277.152L786.084,274.383L782.861,271.653L779.602,268.963L776.307,266.311L772.977,263.7L769.611,261.129L766.209,258.599L762.773,256.11L759.302,253.664L755.796,251.26L752.256,248.899L748.682,246.582L745.074,244.309L741.432,242.081L737.756,239.898L734.048,237.761L730.306,235.669L726.532,233.625L722.724,231.627L718.885,229.678L715.013,227.777L711.109,225.924L707.174,224.121L703.207,222.367L699.208,220.664L695.178,219.012L691.117,217.411L687.026,215.862L682.903,214.365L678.751,212.921L674.568,211.53L670.355,210.194L666.112,208.912L661.839,207.685L657.537,206.513L653.205,205.398L648.844,204.339L644.454,203.337L640.035,202.393L635.588,201.507L631.112,200.679L626.608,199.911L622.075,199.203L617.515,198.555L612.927,197.968L608.311,197.442L603.667,196.979L598.996,196.577L594.298,196.239L589.573,195.965L584.821,195.754L580.042,195.609L575.236,195.529L570.405,195.514L565.547,195.567L559.171,195.722L552.863,195.962L546.622,196.286L540.447,196.693L534.338,197.181L528.296,197.749L522.319,198.397L516.407,199.123L510.56,199.926L504.778,200.806L499.059,201.76L493.405,202.788L487.814,203.89L482.286,205.063L476.822,206.307L471.419,207.621L466.078,209.004L460.8,210.454L455.582,211.971L450.425,213.554L445.329,215.201L440.294,216.912L435.318,218.685L430.402,220.52L425.544,222.416L420.746,224.372L416.006,226.386L411.325,228.458L406.701,230.586L402.134,232.77L397.625,235.009L393.172,237.301L388.776,239.647L384.437,242.044L380.153,244.492L375.924,246.99L371.751,249.537L367.632,252.132L363.569,254.773L359.559,257.461L355.604,260.194L351.703,262.971L347.854,265.792L344.06,268.654L340.318,271.558L336.629,274.502L332.992,277.485L329.408,280.507L325.875,283.566L322.394,286.662L318.965,289.793L315.587,292.958L312.26,296.157L308.983,299.389L305.757,302.652L302.582,305.946L299.456,309.269L296.381,312.622L293.355,316.001L290.378,319.407L287.451,322.839L284.573,326.296L281.743,329.776L278.962,333.279L276.23,336.804L273.546,340.349L270.909,343.914L268.321,347.497L265.78,351.098L263.286,354.716L260.839,358.349L258.44,361.997L256.087,365.658L253.781,369.332L251.521,373.017L249.307,376.712L247.14,380.417L245.018,384.13L242.941,387.851L240.91,391.578L238.924,395.31L236.983,399.046L235.087,402.785L233.235,406.526L231.428,410.269L229.665,414.011L227.945,417.752L226.27,421.491L224.637,425.226L223.049,428.958L221.503,432.684L220,436.403L218.54,440.115L217.122,443.818L215.746,447.512L214.413,451.195L213.121,454.866L211.871,458.524L210.662,462.168L209.494,465.797L208.368,469.41L207.282,473.006L206.236,476.583L205.231,480.14L204.265,483.678L203.34,487.193L202.454,490.685L201.607,494.154L200.8,497.598L200.031,501.015L199.301,504.405L198.609,507.767L197.956,511.099L197.34,514.4L196.762,517.67L196.222,520.906L195.718,524.109L195.252,527.275L194.822,530.406L194.428,533.498L194.071,536.552L193.749,539.565L193.463,542.537L193.211,545.466L192.995,548.352L192.813,551.192L192.666,553.986L192.552,556.735L192.371,562.733L192.255,568.707L192.204,574.654L192.217,580.575L192.294,586.468L192.434,592.334L192.637,598.172L192.903,603.982L193.23,609.763L193.62,615.516L194.071,621.24L194.583,626.934L195.156,632.599L195.789,638.234L196.481,643.839L197.233,649.413L198.044,654.956L198.913,660.468L199.841,665.949L200.826,671.397L201.868,676.814L202.968,682.199L204.123,687.55L205.335,692.869L206.603,698.155L207.926,703.407L209.304,708.625L210.736,713.808L212.223,718.958L213.763,724.072L215.356,729.152L217.003,734.196L218.702,739.204L220.453,744.176L222.255,749.112L224.109,754.012L226.014,758.874L227.969,763.7L229.975,768.487L232.03,773.237L234.134,777.949L236.287,782.622L238.489,787.257L240.739,791.852L243.037,796.408L245.382,800.925L247.774,805.401L250.212,809.838L252.696,814.233L255.227,818.588L257.802,822.902L260.423,827.174L263.088,831.404L265.797,835.593L268.55,839.739L271.346,843.842L274.185,847.902L277.067,851.919L279.991,855.892L282.957,859.821L285.964,863.707L289.012,867.547L292.101,871.343L295.229,875.094L298.398,878.799L301.606,882.458L304.853,886.072L308.139,889.639L311.463,893.16L314.825,896.633L318.225,900.06L321.661,903.438L325.134,906.769L328.644,910.052L332.189,913.287L335.77,916.472L339.386,919.609L343.037,922.696L346.722,925.734L350.442,928.721L354.194,931.659L357.98,934.546L361.799,937.382L365.65,940.166L369.534,942.9L373.449,945.581L377.395,948.211L381.373,950.788L385.38,953.313L389.418,955.784L393.486,958.203L397.584,960.568L401.71,962.878L405.865,965.135L410.048,967.338L414.259,969.485L418.498,971.578L422.764,973.615L427.057,975.596L431.376,977.522L435.721,979.391L440.092,981.204L444.488,982.96L448.91,984.658L453.356,986.299L457.826,987.883L462.32,989.408L466.838,990.875L471.378,992.283L475.942,993.632L480.528,994.922L485.136,996.152L489.766,997.322L494.418,998.432L499.09,999.482L503.783,1000.47L508.496,1001.4L513.23,1002.26L517.983,1003.07L522.755,1003.81L527.546,1004.49L532.356,1005.11L537.184,1005.66L542.03,1006.15L546.893,1006.58L551.774,1006.94L556.671,1007.24L561.675,1007.47L563.779,1007.74L565.816,1008.33L567.735,1009.24L569.489,1010.43L571.035,1011.88L572.335,1013.56L573.356,1015.42L574.074,1017.41L574.471,1019.5L574.537,1021.62L574.271,1023.72L573.678,1025.76L572.775,1027.68L571.582,1029.43L570.129,1030.98L568.453,1032.28L566.594,1033.3L564.598,1034.02L562.514,1034.41L560.394,1034.48L555.21,1034.23L549.953,1033.91L544.712,1033.52L539.489,1033.07L534.284,1032.54L529.097,1031.94L523.929,1031.28L518.78,1030.55L513.651,1029.75L508.543,1028.89L503.454,1027.96L498.387,1026.96L493.341,1025.9L488.317,1024.77L483.316,1023.58L478.337,1022.32L473.381,1021L468.45,1019.61L463.542,1018.16L458.659,1016.64L453.801,1015.07L448.968,1013.43L444.161,1011.72L439.381,1009.96L434.627,1008.13L429.9,1006.25L425.201,1004.3L420.53,1002.29L415.887,1000.22L411.273,998.087L406.689,995.898L402.134,993.649L397.609,991.342L393.115,988.976L388.652,986.552L384.221,984.07L379.821,981.53L375.453,978.934L371.118,976.281L366.816,973.571L362.548,970.805L358.314,967.984L354.114,965.107L349.949,962.175L345.819,959.189L341.724,956.148L337.666,953.053L333.643,949.905L329.658,946.704L325.71,943.45L321.8,940.143L317.927,936.784L314.094,933.373L310.299,929.911L306.543,926.398L302.827,922.834L299.151,919.22L295.515,915.556L291.921,911.842L288.367,908.078L284.856,904.266L281.386,900.405L277.96,896.496L274.576,892.539L271.235,888.535L267.938,884.483L264.685,880.384L261.477,876.239L258.313,872.048L255.195,867.811L252.123,863.529L249.097,859.201L246.117,854.829L243.185,850.412L240.3,845.952L237.462,841.447L234.672,836.9L231.932,832.309L229.24,827.676L226.597,823.001L224.004,818.283L221.461,813.524L218.969,808.724L216.528,803.883L214.138,799.002L211.8,794.08L209.514,789.119L207.28,784.118L205.1,779.078L202.972,773.999L200.899,768.882L198.879,763.727L196.914,758.534L195.004,753.304L193.149,748.036L191.35,742.733L189.607,737.392L187.921,732.016L186.291,726.605L184.719,721.158L183.204,715.676L181.748,710.16L180.349,704.61L179.01,699.025L177.73,693.408L176.509,687.757L175.349,682.073L174.249,676.357L173.21,670.609L172.232,664.829L171.315,659.018L170.461,653.176L169.669,647.303L168.939,641.4L168.273,635.467L167.67,629.504L167.131,623.512L166.657,617.492L166.247,611.442L165.902,605.365L165.623,599.259L165.41,593.127L165.263,586.967L165.182,580.78L165.169,574.567L165.223,568.327L165.344,562.062L165.534,555.769L165.66,552.715L165.824,549.617L166.025,546.479L166.263,543.301L166.538,540.086L166.852,536.833L167.203,533.544L167.592,530.219L168.02,526.859L168.486,523.466L168.991,520.039L169.535,516.58L170.118,513.09L170.74,509.569L171.402,506.019L172.104,502.441L172.846,498.835L173.628,495.203L174.451,491.545L175.314,487.863L176.219,484.157L177.165,480.428L178.152,476.677L179.181,472.906L180.253,469.114L181.366,465.304L182.522,461.477L183.721,457.632L184.963,453.772L186.249,449.896L187.578,446.007L188.951,442.106L190.368,438.192L191.83,434.267L193.336,430.333L194.887,426.39L196.484,422.439L198.125,418.482L199.813,414.518L201.547,410.55L203.327,406.578L205.154,402.604L207.027,398.628L208.948,394.651L210.916,390.675L212.931,386.7L214.995,382.727L217.107,378.759L219.268,374.794L221.477,370.836L223.736,366.883L226.043,362.939L228.401,359.004L230.808,355.078L233.266,351.163L235.774,347.26L238.333,343.37L240.943,339.494L243.605,335.633L246.318,331.788L249.082,327.96L251.9,324.151L254.769,320.361L257.692,316.592L260.667,312.844L263.696,309.118L266.778,305.417L269.914,301.74L273.104,298.089L276.349,294.465L279.648,290.869L283.002,287.303L286.412,283.766L289.877,280.261L293.397,276.789L296.974,273.35L300.607,269.946L304.296,266.577L308.042,263.246L311.845,259.952L315.705,256.698L319.623,253.485L323.598,250.312L327.631,247.182L331.723,244.096L335.872,241.055L340.08,238.06L344.347,235.111L348.673,232.211L353.058,229.36L357.502,226.56L362.006,223.812L366.57,221.116L371.193,218.474L375.877,215.887L380.621,213.356L385.425,210.882L390.29,208.467L395.215,206.111L400.202,203.816L405.249,201.582L410.358,199.411L415.528,197.305L420.759,195.263L426.052,193.287L431.406,191.378L436.823,189.538L442.301,187.767L447.841,186.067L453.444,184.438L459.109,182.881L464.836,181.399L470.627,179.991L476.479,178.658L482.395,177.403L488.373,176.225L494.415,175.126L500.519,174.107L506.687,173.169L512.919,172.313L519.214,171.54L525.573,170.851L531.995,170.246L538.482,169.728L545.033,169.297L551.648,168.954L558.328,168.699L565.072,168.535L570.3,168.479L575.502,168.494Z" style="fill:white;fill-opacity:0.99;"/>
    </g>
</svg>
